<svg id="Layer_1" data-name="Layer 1" xmlns="http://www.w3.org/2000/svg" viewBox="0 0 1080 181.35"><defs><style>.cls-1{fill:#ee3625;}.cls-2{fill:#fff;}</style></defs><path class="cls-1" d="M207.31,594.82V484.4h48.27q18,0,31.55,6.94a52.06,52.06,0,0,1,21.14,19.24q7.58,12.31,7.57,29,0,16.56-7.57,28.95a51.9,51.9,0,0,1-21.14,19.32q-13.56,6.95-31.55,6.94Zm20.51-17.35h26.82q12.45,0,21.53-4.73a34.17,34.17,0,0,0,14-13.26,38.72,38.72,0,0,0,5-19.87q0-11.5-5-20a34.31,34.31,0,0,0-14-13.18q-9.07-4.73-21.53-4.73H227.82Z" transform="translate(-0.38 -448.95)"/><rect x="898.68" y="0.03" width="181.32" height="181.32"/><path class="cls-2" d="M979.46,594.85V484.43H1000V594.85Z" transform="translate(-0.38 -448.95)"/><rect x="691.74" y="0.03" width="181.32" height="181.32"/><path class="cls-2" d="M782.22,596.43a82.38,82.38,0,0,1-24.76-3.71q-11.84-3.71-18.77-9.54l7.1-15.93a57.24,57.24,0,0,0,16.4,8.67,59.33,59.33,0,0,0,20,3.47q8.68,0,14-1.89a16.7,16.7,0,0,0,7.89-5.13,11.6,11.6,0,0,0,2.52-7.33,10.12,10.12,0,0,0-3.62-8.13,26.83,26.83,0,0,0-9.39-4.89q-5.76-1.8-12.78-3.39t-14-3.7a58.13,58.13,0,0,1-12.77-5.53,27.61,27.61,0,0,1-9.39-9.07q-3.63-5.67-3.63-14.51a29.85,29.85,0,0,1,4.81-16.48q4.82-7.5,14.67-12t25-4.5a78.25,78.25,0,0,1,19.71,2.53,57.15,57.15,0,0,1,17,7.25l-6.47,15.93a60.85,60.85,0,0,0-15.3-6.54,58.08,58.08,0,0,0-15.14-2.13q-8.52,0-13.8,2.05a16.85,16.85,0,0,0-7.73,5.36,12.44,12.44,0,0,0-2.45,7.57A10.25,10.25,0,0,0,765,523a25.15,25.15,0,0,0,9.31,4.81q5.76,1.74,12.85,3.39t14.12,3.71A58.4,58.4,0,0,1,814,540.27a26.37,26.37,0,0,1,9.31,9q3.54,5.68,3.55,14.36a29.58,29.58,0,0,1-4.82,16.32q-4.81,7.5-14.74,12T782.22,596.43Z" transform="translate(-0.38 -448.95)"/><path class="cls-1" d="M400.48,596.46a64.83,64.83,0,0,1-23.82-4.26,57.75,57.75,0,0,1-18.93-11.91,53.58,53.58,0,0,1-12.46-18,60.19,60.19,0,0,1,0-45.28,53.68,53.68,0,0,1,12.46-18,57.75,57.75,0,0,1,18.93-11.91,68.08,68.08,0,0,1,47.41,0,57.92,57.92,0,0,1,18.85,11.91,53.82,53.82,0,0,1,12.46,18,60.52,60.52,0,0,1,0,45.36,52.74,52.74,0,0,1-12.46,18,58.56,58.56,0,0,1-18.85,11.83A63.8,63.8,0,0,1,400.48,596.46Zm-.16-18a41.28,41.28,0,0,0,15.46-2.84,35.6,35.6,0,0,0,12.31-8.13,38.31,38.31,0,0,0,8.12-12.3,42.81,42.81,0,0,0,0-31.08,38.42,38.42,0,0,0-8.12-12.3,35.57,35.57,0,0,0-12.31-8.12,41.08,41.08,0,0,0-15.46-2.84,40.52,40.52,0,0,0-15.38,2.84,36.59,36.59,0,0,0-12.3,8.12,37.67,37.67,0,0,0-8.2,12.3,42.6,42.6,0,0,0,0,31,38,38,0,0,0,8.12,12.38,35.6,35.6,0,0,0,12.31,8.13A41.26,41.26,0,0,0,400.32,578.48Z" transform="translate(-0.38 -448.95)"/><rect width="181.32" height="181.32"/><path class="cls-2" d="M91.11,595.61q-22.71,0-35.57-12.78T42.68,545.92V483.61H63.19v61.52q0,17,7.34,24.77t20.74,7.73q13.41,0,20.67-7.73t7.25-24.77V483.61h20.19v62.31q0,24.14-12.85,36.91T91.11,595.61Z" transform="translate(-0.38 -448.95)"/><rect x="484.7" y="0.03" width="181.32" height="181.32"/><path class="cls-2" d="M526.68,594.85V484.43h16.88l69.25,85h-8.36v-85H624.8V594.85H607.92l-69.25-85H547v85Z" transform="translate(-0.38 -448.95)"/></svg>